<svg width="880" height="183" viewBox="0 0 880 183" fill="none" xmlns="http://www.w3.org/2000/svg">
<g clip-path="url(#clip0_445_485)">
<path d="M113.96 160.371C112.84 160.371 111.72 160.051 110.72 159.411C108.92 158.251 107.92 156.291 108.04 154.131L108.44 124.171C108.48 102.971 108.52 78.971 91.68 66.051C78.24 55.731 56 56.651 43.12 68.051C39.68 71.091 37.28 74.931 36.32 78.851C36.2 79.571 36.04 80.331 35.92 81.051L29.2 80.131C29.32 79.211 29.48 78.251 29.68 77.331C31.6 67.251 34.88 58.331 39.64 50.171C49.36 33.491 66.52 23.411 86.64 22.411C102.12 21.651 117.52 26.331 130.08 35.611C155.64 54.491 165.4 90.251 153.32 120.651C146.6 137.571 133.88 151.091 116.6 159.731C115.76 160.171 114.84 160.371 113.96 160.371ZM69 52.171C78.72 52.171 88.4 54.971 95.8 60.651C115.32 75.611 115.24 102.531 115.2 124.171V127.291L114.84 153.051C129.96 145.171 141.08 133.131 147.04 118.171C158.04 90.571 149.2 58.131 126.08 41.091C114.8 32.731 100.92 28.531 87 29.211L86.84 25.851L87 29.251C69.2 30.131 54.08 39.011 45.52 53.651C44.24 55.811 43.12 58.051 42.08 60.331C49.76 54.971 59.44 52.251 69.04 52.251L69 52.171Z" fill="black"/>
<path d="M67.44 115.771H0V112.371C0 93.771 15.12 78.651 33.72 78.651C52.32 78.651 67.44 93.771 67.44 112.371V115.771ZM60.44 108.971C58.76 95.691 47.4 85.411 33.68 85.411C19.96 85.411 8.6 95.731 6.92 108.971H60.44Z" fill="black"/>
<path d="M229.44 125.331C222.4 125.331 217.16 123.651 213.72 120.251C210.32 116.811 208.64 111.571 208.64 104.531V92.331C208.64 85.251 210.32 80.011 213.72 76.611C217.16 73.211 222.4 71.531 229.44 71.531H250.04V55.091C250.04 52.131 251.52 50.651 254.48 50.651C257.44 50.651 258.92 52.131 258.92 55.091V120.891C258.92 123.851 257.44 125.331 254.48 125.331C251.52 125.331 250.04 123.851 250.04 120.891V120.131C248.36 121.811 246.2 123.131 243.52 124.011C240.84 124.891 237.48 125.331 233.48 125.331H229.44ZM233.48 116.411C238.16 116.411 242.08 115.811 245.24 114.611C248.44 113.411 250 111.571 250 109.091V80.451H229.4C224.8 80.451 221.68 81.291 220 83.011C218.32 84.691 217.52 87.771 217.52 92.331V104.531C217.52 109.131 218.36 112.251 220 113.931C221.68 115.611 224.84 116.411 229.4 116.411H233.48ZM298.24 125.331C291.2 125.331 285.96 123.651 282.52 120.251C279.12 116.851 277.44 111.651 277.44 104.651V92.331C277.44 85.211 279.12 79.971 282.52 76.611C285.96 73.211 291.2 71.531 298.24 71.531H306.96C314.04 71.531 319.28 73.211 322.68 76.611C326.08 80.011 327.76 85.251 327.76 92.331V104.531C327.76 111.571 326.08 116.811 322.68 120.251C319.28 123.651 314.04 125.331 306.96 125.331H298.24ZM286.36 104.651C286.36 109.211 287.2 112.331 288.84 113.971C290.52 115.611 293.64 116.411 298.24 116.411H306.96C311.6 116.411 314.72 115.571 316.36 113.931C318.04 112.251 318.84 109.131 318.84 104.531V92.331C318.84 87.691 318 84.571 316.36 82.931C314.72 81.251 311.6 80.451 306.96 80.451H298.24C295.16 80.451 292.76 80.811 291.04 81.531C289.36 82.211 288.12 83.411 287.44 85.131C286.72 86.811 286.36 89.251 286.36 92.331V104.651ZM363.24 125.331C357.84 125.331 353.8 124.011 351.16 121.371C348.56 118.691 347.24 114.651 347.24 109.211V55.091C347.24 52.131 348.72 50.651 351.68 50.651C354.64 50.651 356.12 52.131 356.12 55.091V109.211C356.12 112.091 356.56 114.011 357.48 115.011C358.44 115.971 360.36 116.451 363.2 116.451C366.24 116.451 367.76 117.931 367.76 120.891C367.88 123.851 366.36 125.331 363.2 125.331H363.24ZM384.84 146.571C381.88 146.571 380.4 145.091 380.4 142.131V76.011C380.4 73.051 381.88 71.571 384.84 71.571C387.8 71.571 389.28 73.051 389.28 76.011V77.331C391.2 75.411 393.56 73.971 396.32 73.051C399.16 72.051 402.32 71.571 405.8 71.571H409.84C416.92 71.571 422.16 73.251 425.56 76.651C428.96 80.051 430.64 85.291 430.64 92.371V104.571C430.64 111.611 428.96 116.851 425.56 120.291C422.16 123.691 416.92 125.371 409.84 125.371H389.24V142.131C389.24 145.091 387.76 146.571 384.8 146.571H384.84ZM389.32 116.411H409.92C414.56 116.411 417.68 115.571 419.32 113.931C421 112.251 421.8 109.131 421.8 104.531V92.331C421.8 87.691 420.96 84.571 419.32 82.931C417.68 81.251 414.56 80.451 409.92 80.451H405.88C401.44 80.451 397.64 80.971 394.44 82.051C391.24 83.131 389.52 84.811 389.36 87.091V116.451L389.32 116.411ZM454.68 125.331C451.72 125.331 450.24 123.851 450.24 120.891V55.091C450.24 52.131 451.72 50.651 454.68 50.651C457.64 50.651 459.12 52.131 459.12 55.091V77.731C462.88 73.611 468.4 71.531 475.68 71.531H478.64C485.72 71.531 490.96 73.211 494.36 76.611C497.76 80.011 499.44 85.251 499.44 92.331V120.891C499.44 123.851 497.96 125.331 495 125.331C492.04 125.331 490.56 123.851 490.56 120.891V92.331C490.56 87.691 489.72 84.571 488 82.931C486.36 81.251 483.24 80.451 478.68 80.451H475.72C471.48 80.451 467.76 80.931 464.64 81.931C461.48 82.891 459.68 84.411 459.16 86.491V120.891C459.16 123.851 457.68 125.331 454.72 125.331H454.68ZM523.48 62.851C520.12 62.851 518.44 61.171 518.44 57.771V54.651C518.44 51.331 520.12 49.651 523.48 49.651H526.56C529.76 49.651 531.4 51.331 531.4 54.651V57.771C531.4 61.171 529.8 62.851 526.56 62.851H523.48ZM524.96 125.331C522 125.331 520.52 123.851 520.52 120.891V76.011C520.52 73.051 522 71.571 524.96 71.571C527.92 71.571 529.44 73.051 529.44 76.011V120.891C529.44 123.851 527.96 125.331 524.96 125.331ZM555.96 125.331C553 125.331 551.48 123.851 551.48 120.891V76.011C551.48 73.051 552.96 71.571 555.96 71.571C558.96 71.571 560.4 73.051 560.4 76.011V77.771C564.16 73.651 569.68 71.571 576.96 71.571H579.92C587 71.571 592.24 73.251 595.64 76.651C599.04 80.051 600.72 85.291 600.72 92.371V120.931C600.72 123.891 599.24 125.371 596.28 125.371C593.32 125.371 591.8 123.891 591.8 120.931V92.371C591.8 87.731 590.96 84.611 589.24 82.971C587.56 81.291 584.48 80.491 579.92 80.491H576.96C572.72 80.491 569 80.971 565.88 81.971C562.72 82.931 560.92 84.451 560.4 86.531V120.931C560.4 123.891 558.92 125.371 555.96 125.371V125.331Z" fill="black"/>
<path d="M676.92 125.331C671.52 125.331 667.48 124.011 664.84 121.371C662.24 118.691 660.92 114.651 660.92 109.211V55.091C660.92 52.131 662.4 50.651 665.36 50.651C668.32 50.651 669.8 52.131 669.8 55.091V109.211C669.8 112.091 670.28 114.011 671.2 115.011C672.16 115.971 674.08 116.451 676.92 116.451C679.96 116.451 681.48 117.931 681.48 120.891C681.6 123.851 680.08 125.331 676.92 125.331ZM711.76 125.331C705.8 125.331 701.4 123.891 698.48 120.971C695.56 118.051 694.12 113.651 694.12 107.691C694.12 101.731 695.56 97.331 698.4 94.411C701.28 91.491 705.72 90.051 711.72 90.051H734.16C733.96 86.331 732.96 83.811 731.24 82.451C729.52 81.091 726.52 80.371 722.32 80.371H716.16C712.64 80.371 710 80.611 708.24 81.131C706.52 81.571 705.28 82.451 704.6 83.691C703.96 85.171 703.32 86.211 702.64 86.771C701.96 87.331 700.96 87.611 699.6 87.611C698.12 87.611 696.96 87.211 696.08 86.371C695.24 85.531 695 84.411 695.36 83.011C696.4 79.011 698.64 76.091 702 74.251C705.4 72.371 710.12 71.451 716.16 71.451H722.32C729.4 71.451 734.64 73.131 738.04 76.531C741.44 79.931 743.12 85.171 743.12 92.251V120.811C743.12 123.771 741.64 125.251 738.68 125.251C735.72 125.251 734.24 123.771 734.24 120.811V118.411C730.44 122.971 724.96 125.251 717.68 125.251H711.72L711.76 125.331ZM711.76 116.411H717.72C720.32 116.411 722.8 116.171 725.08 115.731C727.36 115.251 729.36 114.371 730.96 113.091C732.64 111.811 733.72 110.011 734.24 107.611V99.011H711.76C708.24 99.011 705.92 99.611 704.76 100.771C703.64 101.931 703.08 104.251 703.08 107.731C703.08 111.211 703.64 113.571 704.76 114.731C705.92 115.851 708.28 116.411 711.76 116.411ZM768.68 125.331C765.72 125.331 764.24 123.851 764.24 120.891V55.091C764.24 52.131 765.72 50.651 768.68 50.651C771.64 50.651 773.12 52.131 773.12 55.091V77.211C774.96 75.331 777.24 73.931 780 72.971C782.76 72.011 785.96 71.531 789.64 71.531H793.68C800.76 71.531 806 73.211 809.4 76.611C812.8 80.011 814.48 85.251 814.48 92.331V104.531C814.48 111.571 812.76 116.811 809.4 120.251C806 123.651 800.76 125.331 793.68 125.331H789.64C785.96 125.331 782.76 124.851 780 123.891C777.24 122.931 774.96 121.531 773.12 119.691V120.851C773.12 123.811 771.64 125.291 768.68 125.291V125.331ZM793.72 116.411C798.36 116.411 801.48 115.571 803.12 113.931C804.76 112.251 805.6 109.091 805.6 104.531V92.331C805.6 87.691 804.76 84.571 803.04 82.931C801.36 81.251 798.28 80.451 793.68 80.451H789.64C784.96 80.451 781.04 81.051 777.88 82.251C774.68 83.411 773.12 85.251 773.12 87.771V109.091C773.12 111.571 774.72 113.411 777.88 114.611C781.08 115.811 785 116.411 789.64 116.411H793.72ZM846.68 125.331C842.2 125.331 838.64 124.411 836 122.571C833.4 120.691 831.72 117.891 830.96 114.171C830.72 112.691 830.96 111.531 831.8 110.651C832.64 109.811 833.8 109.371 835.32 109.371C836.84 109.371 837.8 109.731 838.44 110.491C839.12 111.211 839.68 112.291 840.08 113.731C840.52 114.811 841.2 115.491 842.2 115.851C843.24 116.211 844.72 116.371 846.64 116.371H864.04C866.8 116.371 868.64 115.931 869.6 115.051C870.56 114.131 871.04 112.251 871.04 109.371C871.04 106.491 870.56 104.651 869.6 103.731C868.64 102.811 866.8 102.371 864.04 102.371H846.96C841.88 102.371 838.04 101.091 835.44 98.491C832.84 95.891 831.56 92.091 831.56 86.971C831.56 81.851 832.8 77.891 835.32 75.371C837.88 72.771 841.76 71.491 846.96 71.491H863.52C871.84 71.491 876.76 75.011 878.28 82.011C878.56 83.491 878.28 84.651 877.44 85.451C876.6 86.251 875.44 86.691 873.92 86.691C872.56 86.691 871.52 86.331 870.84 85.611C870.16 84.851 869.64 83.851 869.24 82.531C868.8 81.691 868.16 81.131 867.28 80.851C866.44 80.571 865.16 80.411 863.52 80.411H846.96C844.28 80.411 842.52 80.811 841.72 81.651C840.92 82.451 840.48 84.251 840.48 87.011C840.48 89.571 840.92 91.291 841.76 92.171C842.64 93.051 844.36 93.491 846.96 93.491H864.04C869.36 93.491 873.32 94.811 876 97.451C878.64 100.091 879.96 104.091 879.96 109.371C879.96 114.651 878.64 118.691 876 121.371C873.36 123.971 869.36 125.291 864.04 125.291H846.64L846.68 125.331Z" fill="black"/>
</g>
<defs>
<clipPath id="clip0_445_485">
<rect width="879.96" height="182.702" fill="white"/>
</clipPath>
</defs>
</svg>
