<svg width="158" height="138" viewBox="0 0 158 138" fill="none" xmlns="http://www.w3.org/2000/svg">
    <style>
      path {
        fill: black;
        stroke-width: 3px;
      }
      @media (prefers-color-scheme: dark) {
        path {
          fill: white;
          path: white;
        }
      }
    </style>
<path d="M152.366 98.0758C145.722 114.804 133.147 128.17 116.103 136.672C115.233 137.107 114.363 137.305 113.453 137.305C112.346 137.305 111.239 136.988 110.289 136.356C108.51 135.209 107.521 133.232 107.6 131.136L107.996 101.516C108.035 80.5967 108.075 56.8299 91.4263 44.0567C78.139 33.854 56.1517 34.7635 43.4181 46.034C40.0567 48.9999 37.684 52.7962 36.7349 56.6321C53.8976 57.9371 67.5013 72.3712 67.5013 89.8899V93.2117H0.788086V89.8899C0.788086 72.9644 13.4822 58.9258 29.8144 56.7903C29.9331 56.2762 30.0517 55.7226 30.1704 55.2085C32.0685 45.243 35.2717 36.4244 40.0172 28.3571C49.6267 11.9062 66.5522 1.90123 86.4435 0.952138C87.5508 0.952138 88.6581 0.873047 89.8049 0.873047C103.962 0.873047 117.882 5.49986 129.39 13.9626C154.659 32.628 164.348 67.9817 152.366 98.0758Z" fill="black"/>
  </svg>